<svg xmlns="http://www.w3.org/2000/svg" width="48" height="48" viewBox="0 0 48 48">
	<rect width="48" height="48" fill="#0a0a0a"/>
	<path d="M0 0h12v12H0zm18 0h12v12H18zm18 0h12v12H36zM9 9h12v12H9zm18 0h12v12H27zM0 18h12v12H0zm18 0h12v12H18zm18 0h12v12H36zM9 27h12v12H9zm18 0h12v12H27zM0 36h12v12H0zm18 0h12v12H18zm18 0h12v12H36z" fill="#1f1f1f" fill-opacity="0.55"/>
	<rect x="2" y="2" width="44" height="44" fill="none" stroke="#2a2a2a" stroke-width="2"/>
	<circle cx="24" cy="24" r="6" fill="none" stroke="#2a2a2a" stroke-width="2"/>
</svg>
